HIERARCHY
ROOT ui
{
	 OFFSET 0 0 0
	 CHANNELS 3 XPosition YPosition Z Position
	 EndSite
	 {
	 OFFSET 0 -1 0
	 }
}
ROOT li
{
	 OFFSET 0 0 0
	 CHANNELS 3 XPosition YPosition Z Position
	 EndSite
	 {
	 OFFSET 0 -1 0
	 }
}
ROOT ul
{
	 OFFSET 0 0 0
	 CHANNELS 3 XPosition YPosition Z Position
	 EndSite
	 {
	 OFFSET 0 -1 0
	 }
}
ROOT ll
{
	 OFFSET 0 0 0
	 CHANNELS 3 XPosition YPosition Z Position
	 EndSite
	 {
	 OFFSET 0 -1 0
	 }
}
ROOT tt
{
	 OFFSET 0 0 0
	 CHANNELS 3 XPosition YPosition Z Position
	 EndSite
	 {
	 OFFSET 0 -1 0
	 }
}
ROOT tb
{
	 OFFSET 0 0 0
	 CHANNELS 3 XPosition YPosition Z Position
	 EndSite
	 {
	 OFFSET 0 -1 0
	 }
}
ROOT td
{
	 OFFSET 0 0 0
	 CHANNELS 3 XPosition YPosition Z Position
	 EndSite
	 {
	 OFFSET 0 -1 0
	 }
}
ROOT v
{
	 OFFSET 0 0 0
	 CHANNELS 3 XPosition YPosition Z Position
	 EndSite
	 {
	 OFFSET 0 -1 0
	 }
}
ROOT bn
{
	 OFFSET 0 0 0
	 CHANNELS 3 XPosition YPosition Z Position
	 EndSite
	 {
	 OFFSET 0 -1 0
	 }
}
MOTION
Frames: 21
Frame Time: 0.002
-0.009960269927978516	-0.005358133792877197	0		0.4519201354980469	-2.34634912109375	0		-1.053980712890625	0.2749100952148438	0		-0.6063246459960937	-2.423911376953125	0		1.8299171142578126	-0.43825885009765625	0		3.366965576171875	-0.788730712890625	0		4.44960205078125	-0.8215362548828125	0		5.8542587890625	0.2858701171875	0		-0.21955039978027344	5.91633203125	0		
0.005061198234558106	-1.1039499938488007E-4	0		0.4627509765625	-2.353044677734375	0		-1.0481170654296874	0.2692974853515625	0		-0.5934945678710938	-2.430629150390625	0		1.8208944091796875	-0.4356727600097656	0		3.3926591796875	-0.8056641235351563	0		4.4526044921875	-0.817143310546875	0		5.86273974609375	0.2793874816894531	0		-0.3528966064453125	5.8947451171875	0		
0.008046438217163086	0.0023302900791168212	0		0.4609329833984375	-2.335537109375	0		-1.033998779296875	0.28058676147460937	0		-0.5983568725585937	-2.41606689453125	0		1.8238900146484376	-0.43224990844726563	0		3.40307421875	-0.7733619995117188	0		4.44769970703125	-0.8066300048828124	0		5.85662255859375	0.33570855712890624	0		-0.3367675476074219	5.9029990234375	0		
2.496599964797497E-5	0.003950867891311645	0		0.4758934020996094	-2.3332587890625	0		-1.0399730224609376	0.2851912536621094	0		-0.5753983154296874	-2.41389208984375	0		1.8046885986328125	-0.44249069213867187	0		3.368972412109375	-0.776404541015625	0		4.4547978515625	-0.7962872314453125	0		5.87083740234375	0.33248306274414063	0		-0.35385791015625	5.89475634765625	0		
0.004905777931213379	-0.0015977959632873535	0		0.44781405639648436	-2.33333251953125	0		-1.045072021484375	0.2808053283691406	0		-0.6134631958007812	-2.412802734375	0		1.7956810302734374	-0.43986370849609374	0		3.375060302734375	-0.7670226440429687	0		4.44375537109375	-0.795672607421875	0		5.86785791015625	0.3160318603515625	0		-0.21950262451171876	5.91432177734375	0		
-0.004119424819946289	-9.212340116500855E-4	0		0.4716700439453125	-2.33814697265625	0		-1.0400496826171874	0.28429522705078125	0		-0.611518310546875	-2.4112763671875	0		1.78382421875	-0.42717669677734377	0		3.36996240234375	-0.7704649658203125	0		4.4437001953125	-0.796207763671875	0		5.8629716796875	0.3377264099121094	0		-0.2204222412109375	5.91488525390625	0		
-0.004157197952270508	-0.0013548530340194702	0		0.42272357177734377	-2.328871826171875	0		-1.0341558837890625	0.27879449462890626	0		-0.5946348266601562	-2.413947265625	0		1.7807196044921876	-0.4316011047363281	0		3.358277587890625	-0.7457916870117187	0		4.4418818359375	-0.7807014770507813	0		5.8707470703125	0.32957705688476563	0		-0.33850674438476563	5.904189453125	0		
-1.3488300144672393E-4	0.0021746060848236086	0		0.4776029663085937	-2.332100341796875	0		-1.030127685546875	0.28234573364257814	0		-0.58861962890625	-2.40743505859375	0		1.78373291015625	-0.42809466552734377	0		3.368166015625	-0.7504205932617187	0		4.44416748046875	-0.7582386474609375	0		5.874390625	0.3458210754394531	0		-0.3403883361816406	5.905814453125	0		
-1.698630005121231E-4	0.0017863899469375611	0		0.4515487060546875	-2.330116455078125	0		-1.030156494140625	0.2819802551269531	0		-0.5907517700195313	-2.410780517578125	0		1.767601806640625	-0.43428610229492187	0		3.377334228515625	-0.736017333984375	0		4.44411572265625	-0.7587250366210937	0		5.859787109375	0.41119210815429685	0		-0.20698345947265626	5.92547314453125	0		
-2.042360007762909E-4	0.0014219889640808105	0		0.4753857116699219	-2.335844482421875	0		-1.0301845703125	0.2816389770507812	0		-0.5887962646484375	-2.408161376953125	0		1.7675577392578126	-0.43469015502929687	0		3.3813564453125	-0.7315170288085937	0		4.43028662109375	-0.7439843139648438	0		5.8724521484375	0.38565740966796874	0		-0.20688497924804689	5.92511328125	0		
-2.3827700316905975E-4	0.0010816500186920167	0		0.42237872314453123	-2.330413330078125	0		-1.0302122802734375	0.28132177734375	0		-0.5909285888671875	-2.411458740234375	0		1.7555003662109374	-0.4358929138183594	0		3.3475458984375	-0.7154330444335938	0		4.43842724609375	-0.7315438232421875	0		5.87242724609375	0.3848396301269531	0		-0.20777096557617186	5.92579248046875	0		
-0.004330869197845459	-0.0031750810146331785	0		0.45128851318359375	-2.331168212890625	0		-1.0211224365234375	0.28889495849609376	0		-0.6578622436523438	-2.400771728515625	0		1.758515380859375	-0.43229409790039064	0		3.36639013671875	-0.72310595703125	0		4.43046630859375	-0.7258436889648437	0		5.87308349609375	0.37884503173828127	0		-0.374065673828125	5.89993896484375	0		
0.002738372087478638	0.003428112030029297	0		0.432379638671875	-2.319191162109375	0		-1.0110317993164062	0.29647763061523436	0		-0.5819757080078125	-2.40317431640625	0		1.7584715576171874	-0.4326280822753906	0		3.3828857421875	-0.6867190551757812	0		4.43071142578125	-0.7062430419921875	0		5.8760390625	0.3987535705566406	0		-0.32377276611328126	5.9119130859375	0		
-3.3868899941444396E-4	2.0419299602508545E-4	0		0.4453030700683594	-2.31866357421875	0		-1.0161162719726562	0.29230844116210936	0		-0.6220781860351563	-2.403835205078125	0		1.740504150390625	-0.4276734924316406	0		3.3487802734375	-0.6905659790039063	0		4.4189296875	-0.688444580078125	0		5.86699755859375	0.43988720703125	0		-0.34076235961914064	5.9049052734375	0		
-3.705869913101196E-4	-4.1028000414371493E-5	0		0.44318341064453126	-2.320889892578125	0		-1.016140869140625	0.2920887145996094	0		-0.601157958984375	-2.403376953125	0		1.77430908203125	-0.4384666748046875	0		3.355057373046875	-0.6689869384765625	0		4.42499853515625	-0.6808909301757813	0		5.8741064453125	0.4389502563476563	0		-0.20733363342285155	5.924689453125	0		
-4.0106499195098876E-4	-2.63247013092041E-4	0		0.443094970703125	-2.321123291015625	0		-1.0161640014648436	0.2918918762207031	0		-0.6412738037109375	-2.404988525390625	0		1.728391845703125	-0.43004925537109373	0		3.35205517578125	-0.6662486572265625	0		4.42216015625	-0.6671805419921875	0		5.88069384765625	0.469216064453125	0		-0.20721614074707032	5.92447265625	0		
-4.297110140323639E-4	-4.6296700835227964E-4	0		0.42795184326171876	-2.325109619140625	0		-1.01112646484375	0.29564187622070315	0		-0.5935005493164063	-2.414887451171875	0		1.728352783203125	-0.4302910461425781	0		3.352457763671875	-0.6365333251953125	0		4.425189453125	-0.662533203125	0		5.89455419921875	0.40583306884765624	0		-0.34041384887695314	5.904263671875	0		
0.0025884149074554444	0.002314182996749878	0		0.4490331115722656	-2.3146123046875	0		-1.0800037841796875	0.3055173645019531	0		-0.6753651123046875	-2.399827880859375	0		1.72831640625	-0.4305091857910156	0		3.34441748046875	-0.636669921875	0		4.41956640625	-0.6347279052734375	0		5.89333251953125	0.4416637878417969	0		-0.3403021240234375	5.90409375	0		
-4.7972500324249266E-4	-7.969279885292053E-4	0		0.44692901611328123	-2.316748291015625	0		-1.0111630859375	0.29535369873046874	0		-0.60556884765625	-2.409015625	0		1.7472811279296876	-0.4309875183105469	0		3.36669140625	-0.6162308959960937	0		4.42566259765625	-0.62607177734375	0		5.8921455078125	0.4827362365722656	0		-0.2068822021484375	5.923953125	0		
-5.005000233650207E-4	-9.324060082435608E-4	0		0.43798342895507814	-2.308758544921875	0		-1.089154296875	0.2974062805175781	0		-0.6076668090820313	-2.41110888671875	0		1.7382828369140626	-0.42902288818359374	0		3.35375	-0.61023876953125	0		4.4200498046875	-0.5982078247070313	0		5.88794775390625	0.4980237731933594	0		-0.20678614807128906	5.92382177734375	0		
-5.182430148124694E-4	-0.0010477739572525024	0		0.4358965759277344	-2.310851318359375	0		-1.011190673828125	0.2951400146484375	0		-0.60975537109375	-2.413183837890625	0		1.7351981201171875	-0.43312246704101565	0		3.356976318359375	-0.5934581298828125	0		4.42614111328125	-0.5904893798828125	0		5.89506689453125	0.49739056396484377	0		-0.20767283630371094	5.925724609375	0		
